PathFileType	4	(X/Y/Z)	C:\Users\WrightLab\Desktop\Jo\P1.2Trial32.trc
DataRate	CameraRate	NumFrames	NumMarkers	Units	OrigDataRate	OrigDataStartFrame	OrigNumFrames
100.00	100.00	       37	19	mm	100.00	1	       724
Frame#	Time	Headset_Front			Headset_Back			Headset_Left			Headset_Right			Left_Shoulder			Right_Shoulder			Sternum			C7			Left Elbow			Right Elbow			Left Wrist			Right Wrist			Left ASIS			Right ASIS			S2			Left Knee			Right Knee			Left Ankle			Right Ankle			
		X1	Y1	Z1	X2	Y2	Z2	X3	Y3	Z3	X4	Y4	Z4	X5	Y5	Z5	X6	Y6	Z6	X7	Y7	Z7	X8	Y8	Z8	X9	Y9	Z9	X10	Y10	Z10	X11	Y11	Z11	X12	Y12	Z12	X13	Y13	Z13	X14	Y14	Z14	X15	Y15	Z15	X16	Y16	Z16	X17	Y17	Z17	X18	Y18	Z18	X19	Y19	Z19	

1	0.000													94.75996	1203.19641	-1555.74658										147.88644	914.50940	-1602.49512										15.39652	833.79169	-1445.92261				-123.13753	884.84961	-1723.59644							33.72662	41.85812	-1580.70410				
2	0.010													94.09674	1203.29822	-1555.26123										146.49196	912.82001	-1608.89929										15.28005	833.52716	-1446.79578				-123.14053	885.00458	-1723.64624							33.72291	41.74232	-1580.96851				
3	0.020													93.45478	1203.79236	-1555.62659										145.60771	912.92694	-1606.83398										15.16788	833.34515	-1447.64270				-123.13741	885.10895	-1723.58850							33.72662	41.85812	-1580.70410				
4	0.030													93.23862	1203.89270	-1554.99878										145.52232	913.07019	-1606.66626										15.03790	833.08527	-1448.62000				-123.13323	885.25159	-1723.59778							33.72662	41.85812	-1580.70410				
5	0.040													92.28641	1203.32471	-1553.00293										145.52472	913.12860	-1606.50244										14.91050	832.82306	-1449.57727				-123.10671	885.41479	-1723.64063							33.88711	41.85115	-1580.58606				
6	0.050													91.56908	1204.23474	-1554.07813										145.46620	913.34003	-1606.08215										14.16712	833.55548	-1448.43530				-123.12402	885.58447	-1723.63904							34.02792	41.88419	-1580.39429				
7	0.060													91.04626	1205.27881	-1555.32507										145.43994	913.70197	-1605.17334										14.11056	833.43927	-1448.85986				-123.12207	886.01672	-1723.92139							34.02541	42.08852	-1579.93494				
8	0.070													90.80906	1205.37878	-1554.68530										145.30693	914.53180	-1605.91919										13.89684	834.06189	-1448.94678				-123.09263	886.23029	-1723.91174							34.09869	41.98548	-1580.10669				
9	0.080													90.58762	1205.47986	-1554.05115										145.33095	914.63861	-1605.56885										13.83840	833.96649	-1449.38757				-123.09281	886.54193	-1724.04980							34.09869	41.98548	-1580.10669				
10	0.090													90.37482	1205.60974	-1553.28406										144.65199	914.86353	-1603.60986										13.77839	833.91620	-1449.84436				-123.04164	886.67395	-1724.00732							34.20556	41.91043	-1580.18738				
11	0.100													90.20528	1205.74915	-1552.50012										144.63425	915.19690	-1602.75488										13.73859	833.87115	-1450.14636				-122.98238	886.78912	-1723.80530							34.09869	41.98548	-1580.10669				
12	0.110													89.99580	1205.89026	-1551.68237										143.81252	915.35614	-1599.56323										13.72774	833.89777	-1450.23193				-122.94598	886.96344	-1723.72827							34.09869	41.98548	-1580.10669				
13	0.120													89.80278	1206.04285	-1550.82043										143.86522	915.44342	-1599.19226										13.73934	834.00897	-1450.15247				-122.94501	887.35181	-1723.98657							34.09869	41.98548	-1580.10669				
14	0.130													89.37035	1207.11121	-1552.01196										143.94225	915.68823	-1598.33374										13.76778	834.09711	-1449.94153				-122.79552	887.59222	-1723.68372							34.09869	41.98548	-1580.10669				
15	0.140													88.67455	1208.05750	-1552.93140										143.88329	915.96857	-1597.72986										13.79148	834.25018	-1449.77234				-122.73396	887.97260	-1723.86353							34.79145	42.64428	-1580.80969				
16	0.150													87.67924	1208.22168	-1552.06396										143.85011	916.43793	-1596.55115										13.82225	834.37225	-1449.54639				-122.63624	888.25195	-1724.03137							34.79145	42.64428	-1580.80969				
17	0.160													87.04429	1208.93323	-1552.25281										143.92717	916.61353	-1595.87915										13.88408	834.57666	-1449.08862				-122.50779	888.47498	-1724.05225							34.79145	42.64428	-1580.80969				
18	0.170													86.92590	1209.14124	-1551.17029										144.82031	917.24261	-1596.75769										13.95327	834.78912	-1448.57495				-122.41000	888.99768	-1724.49084							34.89823	42.56926	-1580.89026				
19	0.180													86.30479	1209.43640	-1550.51233										144.71126	917.85358	-1595.39600										14.03145	834.97485	-1447.99036				-122.22446	889.12250	-1724.37964							34.89823	42.56926	-1580.89026				
20	0.190													86.22379	1209.63440	-1549.50195										144.75404	918.06335	-1594.72083										14.12876	835.19379	-1447.26160				-122.11205	889.32886	-1724.46851							34.89823	42.56926	-1580.89026				
21	0.200													86.16186	1209.86243	-1548.35962										144.41373	918.83057	-1593.74524										14.70755	835.42084	-1448.39783				-121.95444	889.57672	-1724.58997							34.87981	42.45919	-1581.15417				
22	0.210													86.10507	1210.06421	-1547.34729										144.40346	919.44928	-1592.10730										14.83990	835.75574	-1447.40881				-121.81910	889.88818	-1724.75391							34.82866	42.46223	-1581.18982				
23	0.220													85.55816	1210.89758	-1547.79639										144.57677	919.74652	-1590.85767										14.92311	835.94232	-1446.78503				-121.71318	889.98779	-1724.83679							34.82866	42.46223	-1581.18982				
24	0.230													85.52696	1211.12305	-1546.68579										144.62767	919.97162	-1590.12000										15.04067	836.30127	-1445.91138				-121.60368	890.29407	-1725.10962							34.81189	42.35210	-1581.45264				
25	0.240													85.49158	1211.34448	-1545.59192										144.65428	920.50232	-1588.62451										15.75575	835.99933	-1446.54395				-121.54762	890.45624	-1725.32178							34.81189	42.35210	-1581.45264				
26	0.250													85.45999	1211.56458	-1544.50696										145.93547	923.14484	-1593.45337										16.53345	835.75049	-1448.27600				-121.50903	890.50110	-1725.34338							34.81189	42.35210	-1581.45264				
27	0.260													84.91061	1212.38037	-1545.03979										146.90919	923.24249	-1593.98877										17.28673	835.45660	-1450.19531				-121.46003	890.53125	-1725.39746							34.81189	42.35210	-1581.45264				
28	0.270													84.89027	1212.56396	-1544.13831										147.67952	923.93298	-1594.82532										17.89282	834.93610	-1451.65466				-121.43243	890.55518	-1725.42102							34.81189	42.35210	-1581.45264				
29	0.280													84.86555	1212.77161	-1543.11792										147.79776	924.42462	-1593.19019										17.95343	835.17126	-1451.20483				-121.42912	890.78101	-1725.71057							34.67428	42.31269	-1581.65625				
30	0.290													84.85167	1212.95142	-1542.23865										148.03708	924.66809	-1591.90955										18.49853	835.34375	-1452.60449				-121.40603	890.79596	-1725.73535							34.67428	42.31269	-1581.65625				
31	0.300													84.84142	1213.10754	-1541.47693										148.10365	924.81470	-1591.34021										18.56944	835.59662	-1452.07629				-121.43415	890.90570	-1725.87354							34.67428	42.31269	-1581.65625				
32	0.310													84.60968	1214.15881	-1542.58826										148.21924	925.24243	-1589.88440										18.61455	835.77209	-1451.74109				-121.39148	891.04199	-1726.04980							34.51727	42.31292	-1581.78662				
33	0.320													84.15938	1214.35352	-1541.76855										149.04150	925.63068	-1589.83154										18.63847	835.86029	-1451.56299				-121.35530	891.07843	-1726.07568							34.51727	42.31292	-1581.78662				
34	0.330													84.17104	1214.51575	-1540.99060										149.98219	926.07819	-1591.07446										18.66841	835.94659	-1451.33862				-121.31552	891.21057	-1726.28845							34.40897	42.23141	-1582.06116				
35	0.340													83.00690	1216.96655	-1545.41321										149.96454	926.35205	-1590.38220										18.71132	836.06659	-1451.01672				-121.23980	891.26007	-1726.36902							34.40897	42.23141	-1582.06116				
36	0.350													82.98991	1217.10596	-1544.72559										149.97147	926.57330	-1589.76758										18.74048	836.17230	-1450.79944				-121.15746	891.31909	-1726.45154							34.40897	42.23141	-1582.06116				
37	0.360													82.40271	1217.73340	-1545.34558										150.04929	926.95447	-1588.53577										19.30899	836.00494	-1452.69067				-121.04962	891.26758	-1726.41150							34.24458	42.22771	-1582.20679				
